<?xml version="1.0" standalone="no"?>
<!DOCTYPE svg PUBLIC "-//W3C//DTD SVG 20010904//EN"
 "http://www.w3.org/TR/2001/REC-SVG-20010904/DTD/svg10.dtd">
<svg version="1.0" xmlns="http://www.w3.org/2000/svg"
 width="700.000000pt" height="700.000000pt" viewBox="0 0 700.000000 700.000000"
 preserveAspectRatio="xMidYMid meet">
<metadata>
Created by potrace 1.14, written by Peter Selinger 2001-2017
</metadata>
<g transform="translate(0.000000,700.000000) scale(0.100000,-0.100000)"
fill="#000000" stroke="none">
<path d="M3269 6886 c-2 -2 -42 -7 -89 -11 -47 -4 -94 -9 -105 -11 -11 -2 -40
-6 -65 -9 -150 -17 -455 -92 -635 -155 -216 -76 -477 -202 -669 -323 -71 -44
-233 -155 -252 -172 -6 -5 -26 -21 -44 -35 -231 -172 -568 -534 -730 -785
-242 -375 -418 -791 -494 -1165 -3 -14 -7 -35 -10 -46 -2 -12 -7 -37 -10 -55
-3 -19 -8 -43 -10 -55 -2 -12 -7 -45 -11 -74 -4 -29 -9 -62 -11 -74 -25 -126
-25 -694 1 -836 1 -8 6 -40 10 -70 67 -518 302 -1085 630 -1525 132 -177 182
-234 344 -396 360 -358 797 -629 1284 -798 80 -27 212 -67 255 -76 9 -2 47
-11 84 -19 75 -18 198 -41 271 -51 27 -4 56 -8 65 -10 105 -19 608 -28 737
-12 33 4 80 10 104 12 271 27 679 141 961 267 97 43 265 131 362 189 91 54
309 203 341 232 7 7 35 30 62 52 115 92 312 283 426 415 213 244 427 588 543
870 15 36 33 79 41 95 7 17 34 91 59 165 63 189 112 393 141 595 4 22 8 50 10
63 13 77 20 235 20 432 0 240 -8 347 -36 520 -6 36 -13 79 -16 95 -22 143
-124 490 -189 649 -175 424 -417 790 -734 1106 -172 172 -203 200 -381 335
-354 267 -763 463 -1194 572 -106 27 -108 27 -197 43 -67 13 -87 16 -148 24
-25 4 -58 9 -75 11 -16 3 -50 8 -75 11 -51 6 -565 15 -571 10z m437 -660 c50
-4 102 -9 115 -11 13 -2 46 -6 74 -10 42 -5 134 -22 214 -39 358 -77 726 -249
1046 -490 105 -80 359 -318 426 -401 13 -17 42 -53 65 -80 131 -160 281 -413
365 -615 22 -52 44 -104 49 -115 7 -16 30 -85 35 -105 1 -3 4 -12 8 -20 3 -8
15 -46 25 -85 18 -62 27 -101 62 -260 5 -22 12 -67 16 -100 3 -33 8 -69 10
-80 7 -33 18 -234 18 -320 0 -289 -50 -592 -143 -868 -39 -117 -115 -297 -155
-370 -13 -23 -38 -69 -56 -102 -57 -104 -177 -282 -245 -364 -293 -354 -638
-619 -1032 -794 -161 -72 -431 -156 -578 -181 -225 -38 -348 -50 -530 -49 -97
0 -259 9 -320 18 -191 27 -204 30 -330 61 -290 71 -594 203 -835 361 -19 13
-43 29 -54 36 -125 83 -247 186 -401 341 -244 245 -431 521 -564 831 -23 55
-46 109 -51 120 -31 70 -109 349 -125 445 -3 19 -8 42 -10 50 -2 8 -7 42 -11
74 -3 33 -8 67 -9 75 -22 128 -23 521 0 639 1 9 6 44 10 77 3 33 13 92 22 130
8 39 17 83 20 100 10 61 83 289 129 402 318 796 1027 1415 1859 1622 192 48
308 66 483 77 59 4 108 7 109 8 4 3 209 -3 289 -8z"/>
<path d="M3226 5565 c-45 -16 -73 -39 -94 -80 -13 -27 -15 -160 -15 -1186 0
-956 2 -1163 13 -1190 16 -38 50 -72 125 -124 43 -30 293 -211 365 -265 37
-28 237 -173 496 -361 127 -91 244 -173 260 -181 25 -13 48 -15 116 -9 32 2
78 54 206 229 163 225 163 225 163 290 -1 68 -25 96 -195 219 -88 64 -206 150
-261 190 -55 40 -194 142 -310 226 l-210 153 -1 975 c0 536 -4 988 -8 1004
-12 46 -46 86 -90 105 -36 16 -72 18 -282 18 -169 0 -252 -4 -278 -13z"/>
</g>
</svg>
